<?xml version="1.0" encoding="UTF-8"?>
<svg id="Layer_1" xmlns="http://www.w3.org/2000/svg" version="1.1" viewBox="0 0 122.88 121">
  <!-- Generator: Adobe Illustrator 29.8.4, SVG Export Plug-In . SVG Version: 2.1.1 Build 6)  -->
  <defs>
    <style>
      .st0, .st1, .st2 {
        fill-rule: evenodd;
      }

      .st0, .st3 {
        fill: #1a1a1a;
      }

      .st1 {
        fill: #fff;
      }

      .st4 {
        fill: #4a7e8d;
        stroke: #000;
        stroke-miterlimit: 10;
      }

      .st2 {
        fill: #365d69;
      }

      .st5 {
        fill: gray;
      }
    </style>
  </defs>
  <path class="st4" d="M11.52,6.67h99.84c6.35.03,11.49,5.17,11.52,11.52v26.75H0v-26.75C.02,11.84,5.17,6.69,11.52,6.67ZM36.31,16.42c5.14,0,9.31,4.17,9.31,9.31s-4.17,9.31-9.31,9.31-9.31-4.17-9.31-9.31h0c0-5.14,4.17-9.31,9.31-9.31h0ZM86.1,16.42c5.14,0,9.31,4.17,9.31,9.31s-4.17,9.31-9.31,9.31-9.31-4.17-9.31-9.31h0c0-5.14,4.17-9.31,9.31-9.31Z"/>
  <path class="st5" d="M111.36,121H11.52c-6.35-.03-11.49-5.17-11.52-11.52V40h122.88v69.46c-.01,6.36-5.16,11.52-11.52,11.54Z"/>
  <path class="st1" d="M12.75,117.31h97.38c4.99-.02,9.04-4.07,9.06-9.06V40H3.69v68.23c.02,5,4.06,9.04,9.06,9.06v.02Z"/>
  <path class="st2" d="M86.1,14.63c6.14,0,11.12,4.96,11.12,11.1,0,6.14-4.96,11.12-11.1,11.12-6.14,0-11.12-4.96-11.12-11.1,0-2.95,1.17-5.78,3.25-7.86l.11-.1c2.07-2.03,4.85-3.16,7.74-3.16ZM86.1,16.42c5.14,0,9.31,4.17,9.31,9.31s-4.17,9.31-9.31,9.31-9.31-4.17-9.31-9.31h0c0-5.14,4.17-9.31,9.31-9.31Z"/>
  <path class="st2" d="M36.31,14.63c6.14,0,11.12,4.96,11.12,11.1,0,6.14-4.96,11.12-11.1,11.12s-11.12-4.96-11.12-11.1c0-2.95,1.17-5.78,3.25-7.86l.11-.1c2.07-2.02,4.85-3.16,7.74-3.16ZM36.31,16.42c5.14,0,9.31,4.17,9.31,9.31s-4.17,9.31-9.31,9.31-9.31-4.17-9.31-9.31h0c0-5.14,4.17-9.31,9.31-9.31h0Z"/>
  <path class="st3" d="M80.54,4.56c0-2.56,2.46-4.56,5.56-4.56s5.56,2,5.56,4.56v21.21c0,2.51-2.48,4.56-5.56,4.56s-5.56-2-5.56-4.56V4.56Z"/>
  <path class="st3" d="M30.75,4.56c0-2.56,2.49-4.56,5.56-4.56s5.56,2,5.56,4.56v21.21c0,2.51-2.48,4.56-5.56,4.56s-5.56-2-5.56-4.56c0,0,0-21.21,0-21.21Z"/>
  <path class="st0" d="M22,85.62h14c.99,0,1.79.8,1.79,1.79h0v11.7c0,.99-.8,1.78-1.79,1.79h-14c-.99,0-1.79-.8-1.8-1.79v-11.7c0-.99.81-1.79,1.8-1.79Z"/>
  <path class="st0" d="M54.58,85.62h14.06c.99,0,1.79.8,1.79,1.79h0v11.7c0,.99-.8,1.78-1.79,1.79h-14.06c-.99,0-1.78-.8-1.79-1.79v-11.7c0-.99.8-1.78,1.79-1.79Z"/>
  <path class="st0" d="M86.87,85.62h14.06c.99,0,1.78.8,1.79,1.79v11.7c0,.99-.8,1.78-1.79,1.79h-14.06c-.99,0-1.78-.8-1.79-1.79v-11.7c0-.99.8-1.79,1.79-1.79h0Z"/>
  <path class="st0" d="M22,56.42h14c.99,0,1.79.81,1.79,1.8v11.69c0,.99-.8,1.78-1.79,1.79h-14c-.99,0-1.79-.8-1.8-1.79v-11.69c0-.99.81-1.79,1.8-1.8Z"/>
  <path class="st0" d="M54.58,56.42h14.06c.99,0,1.79.81,1.79,1.8v11.69c0,.99-.8,1.78-1.79,1.79h-14.06c-.99,0-1.79-.8-1.79-1.79h0v-11.69c0-.99.8-1.79,1.79-1.8Z"/>
  <path class="st0" d="M86.87,56.42h14.06c.99,0,1.79.81,1.79,1.8v11.69c0,.99-.8,1.78-1.79,1.79h-14.06c-.99,0-1.79-.8-1.79-1.79h0v-11.69c0-.99.8-1.79,1.79-1.8Z"/>
</svg>